<mxfile host="app.diagrams.net" agent="Mozilla/5.0 (Windows NT 10.0; Win64; x64) AppleWebKit/537.36 (KHTML, like Gecko) Chrome/132.0.0.0 Safari/537.36 OPR/117.0.0.0 (Edition std-1)" version="26.1.3">
  <diagram name="Page-1" id="TA91ZreWmZzHGBM8d_jT">
    <mxGraphModel dx="913" dy="651" grid="1" gridSize="10" guides="1" tooltips="1" connect="1" arrows="1" fold="1" page="1" pageScale="1" pageWidth="850" pageHeight="1100" math="0" shadow="0">
      <root>
        <mxCell id="0" />
        <mxCell id="1" parent="0" />
        <mxCell id="gg3U6s2nsnJYhtxrGBEF-2" value="Hospital User" style="swimlane;whiteSpace=wrap;html=1;" parent="1" vertex="1">
          <mxGeometry x="40" y="240" width="200" height="150" as="geometry" />
        </mxCell>
        <mxCell id="gg3U6s2nsnJYhtxrGBEF-3" value="- firstName: String&lt;div&gt;- lastName: String&lt;/div&gt;&lt;div&gt;- username: String&lt;/div&gt;&lt;div&gt;- email: String&lt;/div&gt;&lt;div&gt;- password: String&lt;/div&gt;&lt;div&gt;&lt;br&gt;&lt;/div&gt;" style="rounded=0;whiteSpace=wrap;html=1;align=left;" parent="gg3U6s2nsnJYhtxrGBEF-2" vertex="1">
          <mxGeometry y="20" width="200" height="130" as="geometry" />
        </mxCell>
        <mxCell id="wtaL-lXfWgzDlZAhbgq6-2" value="" style="endArrow=none;html=1;rounded=0;entryX=1;entryY=0.75;entryDx=0;entryDy=0;" edge="1" parent="gg3U6s2nsnJYhtxrGBEF-2" target="gg3U6s2nsnJYhtxrGBEF-3">
          <mxGeometry width="50" height="50" relative="1" as="geometry">
            <mxPoint y="118" as="sourcePoint" />
            <mxPoint x="370" y="70" as="targetPoint" />
          </mxGeometry>
        </mxCell>
        <mxCell id="wtaL-lXfWgzDlZAhbgq6-3" value="- createOrder()" style="text;html=1;align=center;verticalAlign=middle;whiteSpace=wrap;rounded=0;" vertex="1" parent="gg3U6s2nsnJYhtxrGBEF-2">
          <mxGeometry y="120" width="100" height="30" as="geometry" />
        </mxCell>
        <mxCell id="gg3U6s2nsnJYhtxrGBEF-4" value="&amp;lt;&amp;lt;dataType&amp;gt;&amp;gt;&lt;div&gt;DateTime&lt;/div&gt;" style="swimlane;whiteSpace=wrap;html=1;startSize=30;" parent="1" vertex="1">
          <mxGeometry x="730" y="100" width="200" height="140" as="geometry" />
        </mxCell>
        <mxCell id="gg3U6s2nsnJYhtxrGBEF-5" value="- sec: Integer&lt;div&gt;- min: Integer&lt;/div&gt;&lt;div&gt;- ore: Integer&lt;/div&gt;&lt;div&gt;- zi: integer&lt;/div&gt;&lt;div&gt;- luna: integer&lt;/div&gt;&lt;div&gt;- an: integer&lt;/div&gt;" style="rounded=0;whiteSpace=wrap;html=1;align=left;" parent="gg3U6s2nsnJYhtxrGBEF-4" vertex="1">
          <mxGeometry y="30" width="200" height="110" as="geometry" />
        </mxCell>
        <mxCell id="gg3U6s2nsnJYhtxrGBEF-6" value="Pharmacy User" style="swimlane;whiteSpace=wrap;html=1;" parent="1" vertex="1">
          <mxGeometry x="490" y="240" width="200" height="150" as="geometry" />
        </mxCell>
        <mxCell id="gg3U6s2nsnJYhtxrGBEF-7" value="- firstName: String&lt;div&gt;- lastName: String&lt;/div&gt;&lt;div&gt;- username: String&lt;/div&gt;&lt;div&gt;- email: String&lt;/div&gt;&lt;div&gt;- password: String&lt;/div&gt;&lt;div&gt;&lt;br&gt;&lt;/div&gt;" style="rounded=0;whiteSpace=wrap;html=1;align=left;" parent="gg3U6s2nsnJYhtxrGBEF-6" vertex="1">
          <mxGeometry y="20" width="200" height="130" as="geometry" />
        </mxCell>
        <mxCell id="wtaL-lXfWgzDlZAhbgq6-5" value="" style="endArrow=none;html=1;rounded=0;entryX=1;entryY=0.75;entryDx=0;entryDy=0;" edge="1" parent="gg3U6s2nsnJYhtxrGBEF-6">
          <mxGeometry width="50" height="50" relative="1" as="geometry">
            <mxPoint y="120" as="sourcePoint" />
            <mxPoint x="200" y="120" as="targetPoint" />
          </mxGeometry>
        </mxCell>
        <mxCell id="wtaL-lXfWgzDlZAhbgq6-6" value="- fulfillOrder()" style="text;html=1;align=center;verticalAlign=middle;whiteSpace=wrap;rounded=0;" vertex="1" parent="gg3U6s2nsnJYhtxrGBEF-6">
          <mxGeometry y="120" width="100" height="30" as="geometry" />
        </mxCell>
        <mxCell id="gg3U6s2nsnJYhtxrGBEF-11" value="&amp;lt;&amp;lt;enumeration&amp;gt;&amp;gt;&lt;div&gt;&lt;span style=&quot;font-weight: 400; text-align: left;&quot;&gt;OrderStatus&lt;/span&gt;&lt;/div&gt;" style="swimlane;whiteSpace=wrap;html=1;startSize=30;" parent="1" vertex="1">
          <mxGeometry x="730" y="280" width="200" height="60" as="geometry" />
        </mxCell>
        <mxCell id="gg3U6s2nsnJYhtxrGBEF-12" value="Pending, Fulfilled, Cancelled" style="rounded=0;whiteSpace=wrap;html=1;align=left;" parent="gg3U6s2nsnJYhtxrGBEF-11" vertex="1">
          <mxGeometry y="30" width="200" height="40" as="geometry" />
        </mxCell>
        <mxCell id="gg3U6s2nsnJYhtxrGBEF-15" value="" style="endArrow=none;html=1;rounded=0;entryX=1;entryY=0.5;entryDx=0;entryDy=0;" parent="1" target="gg3U6s2nsnJYhtxrGBEF-22" edge="1">
          <mxGeometry width="50" height="50" relative="1" as="geometry">
            <mxPoint x="130" y="240" as="sourcePoint" />
            <mxPoint x="600" y="230" as="targetPoint" />
            <Array as="points">
              <mxPoint x="130" y="160" />
              <mxPoint x="130" y="70" />
            </Array>
          </mxGeometry>
        </mxCell>
        <mxCell id="gg3U6s2nsnJYhtxrGBEF-16" value="1" style="text;html=1;align=center;verticalAlign=middle;whiteSpace=wrap;rounded=0;" parent="1" vertex="1">
          <mxGeometry x="70" y="210" width="60" height="30" as="geometry" />
        </mxCell>
        <mxCell id="gg3U6s2nsnJYhtxrGBEF-17" value="Client" style="text;html=1;align=center;verticalAlign=middle;whiteSpace=wrap;rounded=0;" parent="1" vertex="1">
          <mxGeometry x="140" y="210" width="60" height="30" as="geometry" />
        </mxCell>
        <mxCell id="gg3U6s2nsnJYhtxrGBEF-18" value="OrderedItem" style="text;html=1;align=center;verticalAlign=middle;whiteSpace=wrap;rounded=0;" parent="1" vertex="1">
          <mxGeometry x="530" y="210" width="60" height="30" as="geometry" />
        </mxCell>
        <mxCell id="gg3U6s2nsnJYhtxrGBEF-19" value="0..*" style="text;html=1;align=center;verticalAlign=middle;whiteSpace=wrap;rounded=0;" parent="1" vertex="1">
          <mxGeometry x="600" y="210" width="60" height="30" as="geometry" />
        </mxCell>
        <mxCell id="gg3U6s2nsnJYhtxrGBEF-21" value="" style="endArrow=none;html=1;rounded=0;exitX=0.468;exitY=-0.006;exitDx=0;exitDy=0;exitPerimeter=0;" parent="1" edge="1" source="wtaL-lXfWgzDlZAhbgq6-7">
          <mxGeometry width="50" height="50" relative="1" as="geometry">
            <mxPoint x="350" y="170" as="sourcePoint" />
            <mxPoint x="350" y="110" as="targetPoint" />
          </mxGeometry>
        </mxCell>
        <mxCell id="gg3U6s2nsnJYhtxrGBEF-22" value="System&lt;div&gt;&lt;br&gt;&lt;/div&gt;" style="swimlane;whiteSpace=wrap;html=1;" parent="1" vertex="1">
          <mxGeometry x="265" y="30" width="200" height="80" as="geometry" />
        </mxCell>
        <mxCell id="gg3U6s2nsnJYhtxrGBEF-23" value="+name: String" style="rounded=0;whiteSpace=wrap;html=1;align=left;" parent="gg3U6s2nsnJYhtxrGBEF-22" vertex="1">
          <mxGeometry y="20" width="200" height="50" as="geometry" />
        </mxCell>
        <mxCell id="wtaL-lXfWgzDlZAhbgq6-1" value="" style="endArrow=none;html=1;rounded=0;exitX=0.445;exitY=0.969;exitDx=0;exitDy=0;exitPerimeter=0;" edge="1" parent="1" source="gg3U6s2nsnJYhtxrGBEF-3">
          <mxGeometry width="50" height="50" relative="1" as="geometry">
            <mxPoint x="129" y="530" as="sourcePoint" />
            <mxPoint x="280" y="450" as="targetPoint" />
            <Array as="points">
              <mxPoint x="129" y="450" />
              <mxPoint x="300" y="450" />
            </Array>
          </mxGeometry>
        </mxCell>
        <mxCell id="wtaL-lXfWgzDlZAhbgq6-7" value="&lt;div&gt;Order&lt;/div&gt;" style="swimlane;whiteSpace=wrap;html=1;" vertex="1" parent="1">
          <mxGeometry x="260" y="410" width="200" height="80" as="geometry" />
        </mxCell>
        <mxCell id="wtaL-lXfWgzDlZAhbgq6-8" value="- hospitalId: number&lt;div&gt;- status: OrderStatus&lt;/div&gt;&lt;div&gt;-createTime: DateTime&lt;/div&gt;" style="rounded=0;whiteSpace=wrap;html=1;align=left;" vertex="1" parent="wtaL-lXfWgzDlZAhbgq6-7">
          <mxGeometry y="20" width="200" height="50" as="geometry" />
        </mxCell>
        <mxCell id="wtaL-lXfWgzDlZAhbgq6-10" value="" style="endArrow=none;html=1;rounded=0;entryX=0.5;entryY=1;entryDx=0;entryDy=0;exitX=1;exitY=0.5;exitDx=0;exitDy=0;" edge="1" parent="1" source="wtaL-lXfWgzDlZAhbgq6-7" target="gg3U6s2nsnJYhtxrGBEF-6">
          <mxGeometry width="50" height="50" relative="1" as="geometry">
            <mxPoint x="460" y="460" as="sourcePoint" />
            <mxPoint x="510" y="410" as="targetPoint" />
            <Array as="points">
              <mxPoint x="590" y="450" />
            </Array>
          </mxGeometry>
        </mxCell>
        <mxCell id="wtaL-lXfWgzDlZAhbgq6-11" value="" style="endArrow=none;html=1;rounded=0;entryX=1;entryY=0.25;entryDx=0;entryDy=0;" edge="1" parent="1" target="gg3U6s2nsnJYhtxrGBEF-23">
          <mxGeometry width="50" height="50" relative="1" as="geometry">
            <mxPoint x="595" y="240" as="sourcePoint" />
            <mxPoint x="930" y="70" as="targetPoint" />
            <Array as="points">
              <mxPoint x="595" y="160" />
              <mxPoint x="600" y="60" />
              <mxPoint x="530" y="60" />
            </Array>
          </mxGeometry>
        </mxCell>
        <mxCell id="wtaL-lXfWgzDlZAhbgq6-12" value="" style="endArrow=none;html=1;rounded=0;" edge="1" parent="1">
          <mxGeometry width="50" height="50" relative="1" as="geometry">
            <mxPoint x="360" y="600" as="sourcePoint" />
            <mxPoint x="360" y="490" as="targetPoint" />
          </mxGeometry>
        </mxCell>
        <mxCell id="wtaL-lXfWgzDlZAhbgq6-13" value="&lt;div&gt;Medication&lt;/div&gt;" style="swimlane;whiteSpace=wrap;html=1;" vertex="1" parent="1">
          <mxGeometry x="250" y="590" width="200" height="80" as="geometry" />
        </mxCell>
        <mxCell id="wtaL-lXfWgzDlZAhbgq6-14" value="- name : String&lt;div&gt;- details : String&lt;/div&gt;&lt;div&gt;&lt;br&gt;&lt;/div&gt;" style="rounded=0;whiteSpace=wrap;html=1;align=left;" vertex="1" parent="wtaL-lXfWgzDlZAhbgq6-13">
          <mxGeometry y="20" width="200" height="50" as="geometry" />
        </mxCell>
        <mxCell id="wtaL-lXfWgzDlZAhbgq6-15" value="" style="endArrow=none;dashed=1;html=1;dashPattern=1 3;strokeWidth=2;rounded=0;" edge="1" parent="1">
          <mxGeometry width="50" height="50" relative="1" as="geometry">
            <mxPoint x="360" y="540" as="sourcePoint" />
            <mxPoint x="490" y="540" as="targetPoint" />
          </mxGeometry>
        </mxCell>
        <mxCell id="wtaL-lXfWgzDlZAhbgq6-16" value="&lt;div&gt;OrderItem&lt;/div&gt;" style="swimlane;whiteSpace=wrap;html=1;" vertex="1" parent="1">
          <mxGeometry x="490" y="500" width="200" height="80" as="geometry" />
        </mxCell>
        <mxCell id="wtaL-lXfWgzDlZAhbgq6-17" value="&lt;div&gt;+ quantity: Integer&lt;/div&gt;" style="rounded=0;whiteSpace=wrap;html=1;align=left;" vertex="1" parent="wtaL-lXfWgzDlZAhbgq6-16">
          <mxGeometry y="20" width="200" height="50" as="geometry" />
        </mxCell>
        <mxCell id="wtaL-lXfWgzDlZAhbgq6-18" value="+ refers" style="text;html=1;align=center;verticalAlign=middle;whiteSpace=wrap;rounded=0;" vertex="1" parent="1">
          <mxGeometry x="290" y="525" width="60" height="30" as="geometry" />
        </mxCell>
      </root>
    </mxGraphModel>
  </diagram>
</mxfile>
